# xmcd CD database file
#
# Track frame offsets:
#	183
#	13570
#	24888
#	36453
#	49798
#	62480
#	72918
#	87010
#	99448
#	111670
#	124818
#	137998
#	151128
#	163440
#	176113
#	184895
#	195155
#	206628
#	220433
#	230928
#	242408
#	254710
#	266410
#	276383
#
# Disc length: 3857 seconds
#
# Revision: 0
# Processed by: cddbd v1.5.1PL0 Copyright (c) Steve Scherf et al.
# Submitted via: CDex 1.51
#
DISCID=6a0f0f18
DTITLE=SONNY BOY WILLIAMSON - The complete chess recordings cd 2
DYEAR=1991
DGENRE=Blues
TTITLE0=Unseen eye
TTITLE1=Your my funeral and my trial
TTITLE2=She got next to me
TTITLE3=Wake up baby
TTITLE4=Keep your hands out of my pocket
TTITLE5=Let your conscience be your guide
TTITLE6=Unseeing eye
TTITLE7=The goat
TTITLE8=Cool disposition
TTITLE9=I never dowrong
TTITLE10=It's sad to be alone
TTITLE11=Open road
TTITLE12=Santa claus
TTITLE13=I can't do without you
TTITLE14=Checkin'up on my baby
TTITLE15=Temperature 110
TTITLE16=Peach tree
TTITLE17=Lomesone cabin
TTITLE18=Somebody help me
TTITLE19=Down child
TTITLE20=Trust my baby
TTITLE21=This old life
TTITLE22=Too close together
TTITLE23=Too young to die
EXTD=YEAR: 1991
EXTT0=
EXTT1=
EXTT2=
EXTT3=
EXTT4=
EXTT5=
EXTT6=
EXTT7=
EXTT8=
EXTT9=
EXTT10=
EXTT11=
EXTT12=
EXTT13=
EXTT14=
EXTT15=
EXTT16=
EXTT17=
EXTT18=
EXTT19=
EXTT20=
EXTT21=
EXTT22=
EXTT23=
PLAYORDER=
